HIERARCHY
ROOT Hips
{
     OFFSET 13.91960 98.72800 -89.78440
     CHANNELS 6 Xposition Yposition Zposition Zrotation Xrotation Yrotation
     JOINT Spine
     {
          OFFSET -0.00000 11.89050 0.00000
          CHANNELS 3 Zrotation Xrotation Yrotation
          JOINT Spine1
          {
               OFFSET -0.00000 25.65740 0.12766
               CHANNELS 3 Zrotation Xrotation Yrotation
               JOINT HEad
               {
                    OFFSET -0.00000 8.73416 0.01134
                    CHANNELS 3 Zrotation Xrotation Yrotation
                    End Site
                    {
                         OFFSET -0.29000 12.77420 2.51395
                    }
               }
               JOINT LeftShoulder1
               {
                    OFFSET 8.99000 -0.36225 -0.22000
                    CHANNELS 3 Zrotation Xrotation Yrotation
                    JOINT LeftArm
                    {
                         OFFSET 10.28270 -0.00338 0.32212
                         CHANNELS 3 Zrotation Xrotation Yrotation
                         JOINT LeftForeArm
                         {
                              OFFSET 32.76690 0.09914 -1.42434
                              CHANNELS 3 Zrotation Xrotation Yrotation
                              JOINT LeftHand
                              {
                                   OFFSET 27.56430 0.08536 1.02216
                                   CHANNELS 3 Zrotation Xrotation Yrotation
                                   End Site
                                   {
                                        OFFSET 16.74430 -0.60000 1.50291
                                   }
                              }
                         }
                    }
               }
               JOINT RightShoulder
               {
                    OFFSET -8.99000 -0.36225 -0.22000
                    CHANNELS 3 Zrotation Xrotation Yrotation
                    JOINT RightArm
                    {
                         OFFSET -10.28270 -0.00338 0.32212
                         CHANNELS 3 Zrotation Xrotation Yrotation
                         JOINT RightForeArm
                         {
                              OFFSET -32.89710 0.09914 -1.42434
                              CHANNELS 3 Zrotation Xrotation Yrotation
                              JOINT RightHand
                              {
                                   OFFSET -27.49210 0.08536 1.02216
                                   CHANNELS 3 Zrotation Xrotation Yrotation
                                   End Site
                                   {
                                        OFFSET -16.63120 -0.60000 1.50291
                                   }
                              }
                         }
                    }
               }
          }
     }
     JOINT LeftUpLeg
     {
          OFFSET 8.94580 -8.66707 0.10165
          CHANNELS 3 Zrotation Xrotation Yrotation
          JOINT LeftLeg
          {
               OFFSET -0.00000 -44.42270 1.37270
               CHANNELS 3 Zrotation Xrotation Yrotation
               JOINT LeftFoot
               {
                    OFFSET -0.25355 -42.09240 -1.46059
                    CHANNELS 3 Zrotation Xrotation Yrotation
                    JOINT LeftToes
                    {
                         OFFSET -0.04000 -4.41509 8.49910
                         CHANNELS 3 Zrotation Xrotation Yrotation
                         End Site
                         {
                              OFFSET 0.08000 -0.04745 9.77979
                         }
                    }
               }
          }
     }
     JOINT RightUpLeg
     {
          OFFSET -8.94580 -8.66707 0.10165
          CHANNELS 3 Zrotation Xrotation Yrotation
          JOINT RightLeg
          {
               OFFSET 0.00000 -44.42270 1.37270
               CHANNELS 3 Zrotation Xrotation Yrotation
               JOINT RightFoot
               {
                    OFFSET 0.25355 -42.09240 -1.46059
                    CHANNELS 3 Zrotation Xrotation Yrotation
                    JOINT RightToes
                    {
                         OFFSET 0.04000 -4.41509 8.49910
                         CHANNELS 3 Zrotation Xrotation Yrotation
                         End Site
                         {
                              OFFSET -0.08000 -0.13745 9.77979
                         }
                    }
               }
          }
     }
}
MOTION
Frames: 10
Frame Time: 0.01667
13.91960 98.72800 -89.78440 -1.08868 -2.36562 -49.70560 2.77968 4.43423 4.15688 1.64727 9.19278 8.48105 -12.31370 1.75881 40.33770 -0.00000 -0.00000 0.00000 -107.37000 -49.68400 -110.76400 -19.80300 32.43400 -81.54560 5.55594 9.67997 -0.87718 8.22604 0.69523 3.00559 52.52170 -9.61303 93.96380 6.46849 11.56030 82.91040 -5.55712 9.68432 0.87760 10.44830 -13.84790 5.43770 2.72486 16.52580 -5.63803 -6.08343 4.72902 0.61286 0.78442 -22.34820 -5.07498 -7.23306 0.91584 -5.08984 -2.68067 24.92360 9.61225 5.18030 -30.81070 0.77004 7.23110 8.37840 -1.66251 
13.86250 98.67330 -90.03100 -1.10843 -2.17307 -49.75380 2.89921 4.47004 4.10087 1.70333 9.28041 8.37319 -12.37450 1.64668 40.53930 -0.00000 -0.00000 0.00000 -107.75000 -50.18030 -110.57500 -20.17170 32.79690 -82.26160 5.55594 9.67997 -0.87718 8.49288 0.71126 3.04522 52.43400 -9.94732 93.49970 6.72036 12.10340 83.01920 -5.55712 9.68432 0.87760 10.85460 -14.20670 5.67248 2.70916 16.92400 -5.92750 -6.66114 4.16954 0.64643 0.79684 -21.50100 -5.01527 -6.96667 0.69220 -5.24164 -2.64858 25.00030 9.74459 4.72914 -30.54970 0.66397 6.67531 7.67639 -1.56381 
13.79480 98.63220 -90.26640 -1.10697 -1.98602 -49.72450 2.97064 4.50477 4.03081 1.74495 9.35929 8.23480 -12.33270 1.58206 40.70010 -0.00000 -0.00000 0.00000 -107.82200 -50.61460 -110.17400 -20.42280 33.04510 -82.74800 5.55594 9.67997 -0.87718 8.81752 0.73122 3.09515 52.33570 -10.37230 92.94560 6.98819 12.67370 83.12420 -5.55712 9.68432 0.87760 11.21200 -14.56580 5.82145 2.70389 17.29980 -6.29422 -7.26885 3.36882 0.66360 0.80725 -20.14360 -4.77331 -6.72666 0.44483 -5.36698 -2.57227 25.12960 9.75624 4.39510 -30.17770 0.58062 5.98312 6.84713 -1.38026 
13.71920 98.60230 -90.48590 -1.08791 -1.83216 -49.62660 3.00500 4.54200 3.94958 1.76020 9.43881 8.07213 -12.21550 1.54820 40.82190 -0.00000 -0.00000 0.00000 -107.58700 -50.99400 -109.56500 -20.53060 33.14200 -82.91530 5.55594 9.67997 -0.87718 9.16709 0.75248 3.14426 52.22330 -10.86270 92.34020 7.26013 13.24640 83.21950 -5.55712 9.68432 0.87760 11.48630 -14.89310 5.88082 2.72245 17.62900 -6.70953 -7.86650 2.41220 0.66173 0.80688 -18.43720 -4.40001 -6.50692 0.22208 -5.45431 -2.49647 25.25560 9.62920 4.07276 -29.72230 0.49943 5.21592 5.95091 -1.14373 
13.64080 98.57900 -90.68160 -1.05662 -1.72548 -49.47590 3.01597 4.58506 3.85990 1.74631 9.52790 7.89240 -12.04730 1.50842 40.91340 -0.00000 -0.00000 0.00000 -107.11500 -51.33460 -108.79600 -20.50130 33.08660 -82.74990 5.55594 9.67997 -0.87718 9.49777 0.77167 3.18125 52.10390 -11.38100 91.73100 7.52259 13.79320 83.30010 -5.55712 9.68432 0.87760 11.65460 -15.17480 5.86154 2.78875 17.90720 -7.14076 -8.42652 1.41006 0.64383 0.79184 -16.61920 -3.98318 -6.30658 0.04915 -5.50321 -2.45234 25.35730 9.38955 3.71663 -29.25320 0.41405 4.47258 5.08592 -0.90776 
13.56560 98.55700 -90.84410 -1.01618 -1.66259 -49.29610 3.01695 4.63492 3.76600 1.70807 9.63047 7.70471 -11.84780 1.41773 40.98770 -0.00000 -0.00000 0.00000 -106.51600 -51.65650 -107.94400 -20.36740 32.91280 -82.32080 5.55594 9.67997 -0.87718 9.76567 0.78562 3.19758 51.99750 -11.88640 91.16490 7.76405 14.29260 83.36700 -5.55712 9.68432 0.87760 11.71000 -15.41540 5.78357 2.92695 18.14380 -7.55168 -8.92826 0.47497 0.61680 0.76710 -14.94840 -3.61357 -6.12719 -0.07519 -5.52659 -2.45895 25.43920 9.09907 3.33962 -28.85500 0.32965 3.85237 4.35830 -0.71803 
13.49840 98.53100 -90.96470 -0.96461 -1.62679 -49.11660 3.01575 4.68984 3.67427 1.65333 9.74398 7.52149 -11.63200 1.24154 41.05690 -0.00000 -0.00000 0.00000 -105.91400 -51.97880 -107.09900 -20.18110 32.68060 -81.76170 5.55594 9.67997 -0.87718 9.93748 0.79209 3.18890 51.93500 -12.34630 90.67760 7.97865 14.73730 83.42910 -5.55712 9.68432 0.87760 11.66180 -15.63610 5.66698 3.14908 18.36320 -7.90288 -9.34759 -0.30825 0.58775 0.74284 -13.63560 -3.35054 -5.97229 -0.17561 -5.54722 -2.52718 25.52390 8.83590 2.98896 -28.60130 0.25628 3.42188 3.84711 -0.59499 
13.44160 98.49590 -91.03590 -0.89538 -1.59642 -48.97100 3.01305 4.74638 3.59334 1.58800 9.86122 7.35919 -11.41210 0.96808 41.12770 -0.00000 -0.00000 0.00000 -105.42300 -52.31480 -106.34900 -20.00480 32.46220 -81.23210 5.55594 9.67997 -0.87718 9.99688 0.79024 3.15484 51.95030 -12.74400 90.28780 8.16789 15.13770 83.50220 -5.55712 9.68432 0.87760 11.53150 -15.86700 5.52445 3.44581 18.60310 -8.15146 -9.65006 -0.90112 0.56103 0.72648 -12.79430 -3.20273 -5.84656 -0.29038 -5.58878 -2.66389 25.64210 8.67159 2.71373 -28.53120 0.20231 3.19254 3.57407 -0.53039 
13.39550 98.44390 -91.05180 -0.79901 -1.55531 -48.89050 2.99805 4.80210 3.53145 1.51269 9.97479 7.23707 -11.19740 0.60998 41.20020 -0.00000 -0.00000 0.00000 -105.12800 -52.66980 -105.76600 -19.89810 32.32280 -80.86950 5.55594 9.67997 -0.87718 9.94432 0.78042 3.09765 52.07260 -13.08190 89.99550 8.34013 15.51850 83.60440 -5.55712 9.68432 0.87760 11.34580 -16.14490 5.35677 3.78459 18.92650 -8.25551 -9.79332 -1.32454 0.53596 0.71757 -12.42260 -3.12918 -5.75804 -0.46212 -5.66536 -2.87509 25.83550 8.65210 2.54345 -28.65070 0.17190 3.12390 3.50072 -0.49815 
13.35910 98.37140 -91.01220 -0.67315 -1.49424 -48.90470 2.96972 4.85448 3.49936 1.42502 10.07960 7.17342 -10.99400 0.19477 41.27070 -0.00000 -0.00000 0.00000 -105.07000 -53.04310 -105.39600 -19.90030 32.30350 -80.75160 5.55594 9.67997 -0.87718 9.79438 0.76398 3.02120 52.31650 -13.37840 89.78660 8.50756 15.91030 83.74980 -5.55712 9.68432 0.87760 11.13950 -16.48600 5.15481 4.11382 19.37840 -8.17260 -9.74757 -1.63013 0.50927 0.70931 -12.41920 -3.06032 -5.70693 -0.71380 -5.77814 -3.16596 26.11950 8.79855 2.47967 -28.92420 0.16421 3.14724 3.55058 -0.47077 
